<?xml version="1.0" encoding="UTF-8"?>
<svg viewBox="0 0 744.09448 1052.3622" xmlns="http://www.w3.org/2000/svg" xmlns:xlink="http://www.w3.org/1999/xlink">
 <g transform="matrix(-1.2954 0 0 1.2954 270.83 -95.292)">
  <path d="m114.06 303.53c15.847 0 28.627 12.751 28.627 28.598v188.8c0 15.847-12.78 28.598-28.627 28.598h-248.8l-49.604 39.405-55.573 52.676 4.6359-92.081h-30.916c-15.847 0-28.598-12.751-28.598-28.598v-188.8c0-15.847 12.751-28.598 28.598-28.598h380.26z" fill="#ff6347" stroke="#b9eef1" stroke-width="11.68"/>
  <path d="m102.84 317.19c14.785 0 26.709 11.108 26.709 24.913v164.47c0 13.805-11.924 24.913-26.709 24.913h-232.14l-46.281 34.328-51.85 45.888 4.3253-80.216h-28.845c-14.785 0-26.682-11.108-26.682-24.913v-164.47c0-13.805 11.896-24.913 26.682-24.913h354.79z" fill="none" stroke="#cccccc" stroke-dasharray="8.77694472, 8.77694472" stroke-width="2.9256"/>
  <path d="m93.084 324.07c13.955-0.0847 25.982 9.0014 26.229 21.45l3.0577 154.45c0.24645 12.449-16.35 22.469-30.306 22.469l-233.37 1.0192-33.49 29.942-44.862 41.387 4.0825-72.348h-27.225c-13.955 0-27.222-10.018-27.222-22.469v-148.34c0-12.451 13.267-25.442 27.222-25.527z" fill="#f5f5f5"/>
 </g>
</svg>
